<svg width="52" height="52" viewBox="0 0 52 52" fill="none" xmlns="http://www.w3.org/2000/svg">
<rect width="52" height="52" rx="26" fill="url(#paint0_linear_298_2570)"/>
<path d="M23.9374 29.5002C23.8482 29.1542 23.6678 28.8384 23.415 28.5856C23.1623 28.3329 22.8465 28.1525 22.5004 28.0632L16.3654 26.4812C16.2608 26.4515 16.1686 26.3885 16.103 26.3017C16.0374 26.2149 16.002 26.1091 16.002 26.0002C16.002 25.8914 16.0374 25.7856 16.103 25.6988C16.1686 25.612 16.2608 25.549 16.3654 25.5192L22.5004 23.9362C22.8464 23.8471 23.1621 23.6668 23.4148 23.4143C23.6675 23.1618 23.848 22.8461 23.9374 22.5002L25.5194 16.3652C25.5488 16.2602 25.6118 16.1676 25.6987 16.1016C25.7857 16.0357 25.8918 16 26.0009 16C26.11 16 26.2162 16.0357 26.3031 16.1016C26.39 16.1676 26.453 16.2602 26.4824 16.3652L28.0634 22.5002C28.1527 22.8463 28.3331 23.1621 28.5858 23.4149C28.8385 23.6676 29.1544 23.848 29.5004 23.9372L35.6354 25.5182C35.7409 25.5473 35.834 25.6103 35.9003 25.6973C35.9666 25.7844 36.0025 25.8908 36.0025 26.0002C36.0025 26.1097 35.9666 26.2161 35.9003 26.3032C35.834 26.3902 35.7409 26.4531 35.6354 26.4822L29.5004 28.0632C29.1544 28.1525 28.8385 28.3329 28.5858 28.5856C28.3331 28.8384 28.1527 29.1542 28.0634 29.5002L26.4814 35.6353C26.452 35.7403 26.389 35.8329 26.3021 35.8989C26.2152 35.9648 26.109 36.0005 25.9999 36.0005C25.8908 36.0005 25.7847 35.9648 25.6977 35.8989C25.6108 35.8329 25.5478 35.7403 25.5184 35.6353L23.9374 29.5002Z" stroke="white" stroke-width="2" stroke-linecap="round" stroke-linejoin="round"/>
<path d="M34 17V21" stroke="white" stroke-width="2" stroke-linecap="round" stroke-linejoin="round"/>
<path d="M36 19H32" stroke="white" stroke-width="2" stroke-linecap="round" stroke-linejoin="round"/>
<path d="M18 31V33" stroke="white" stroke-width="2" stroke-linecap="round" stroke-linejoin="round"/>
<path d="M19 32H17" stroke="white" stroke-width="2" stroke-linecap="round" stroke-linejoin="round"/>
<defs>
<linearGradient id="paint0_linear_298_2570" x1="0" y1="0" x2="52" y2="52" gradientUnits="userSpaceOnUse">
<stop stop-color="#AD46FF"/>
<stop offset="0.5" stop-color="#F6339A"/>
<stop offset="1" stop-color="#FF6900"/>
</linearGradient>
</defs>
</svg>
